<svg width="1000" height="487" viewBox="0 0 1000 487" fill="none" xmlns="http://www.w3.org/2000/svg">
<path d="M0.338472 310.601C29.1085 220.601 65.5785 125.661 102.748 23.2808C108.908 6.28081 124.668 -4.48919 143.658 7.66081C157.138 16.2908 172.818 49.1408 186.658 70.6608C207.658 103.191 212.078 114.901 217.088 109.141C229.478 94.8908 260.318 28.7808 275.448 8.70081C284.208 -2.90919 306.858 -2.63919 315.128 12.8108C331.128 42.8108 360.128 113.751 377.498 152.171C394.048 188.821 417.058 239.641 439.648 294.711C441.738 299.791 441.188 315.711 427.768 317.031C415.768 318.201 410.018 318.881 398.028 318.031C387.898 317.351 383.478 315.261 378.228 302.851C345.998 226.631 316.768 160.461 282.648 79.8308C272.098 54.8808 253.888 67.7608 247.268 78.8308C219.548 125.401 210.368 148.771 186.758 148.771C168.208 149.841 149.448 109.911 129.938 79.8608C115.238 57.2208 102.608 63.9208 97.4485 77.6308C64.9985 163.891 41.5985 231.051 14.4185 316.021C13.5485 318.761 -2.51153 319.531 0.338472 310.601Z" fill="white"/>
<path d="M999.659 9.16096C970.889 99.161 934.419 194.091 897.249 296.471C891.089 313.471 875.329 324.241 856.339 312.091C842.859 303.461 817.449 246.091 805.929 223.261C781.289 174.431 749.399 103.631 747.189 98.621C731.629 63.351 719.809 43.241 720.079 21.751C720.269 6.37096 745.619 -9.66904 764.029 12.751C778.259 30.021 804.609 91.401 826.999 136.131C842.689 167.521 858.339 199.381 874.369 231.441C886.109 254.931 898.859 248.081 904.019 234.371C936.439 148.161 958.399 88.711 985.579 3.73096C986.449 0.990963 1002.51 0.240963 999.659 9.16096Z" fill="white"/>
<path d="M518.738 202.761C541.888 249.271 566.738 298.271 579.468 309.201C590.778 318.891 607.418 317.261 631.098 316.341C635.838 316.161 648.188 310.481 641.958 300.061C626.278 273.811 617.878 261.961 593.278 219.641C585.418 206.121 562.398 171.641 562.398 159.351C562.398 140.021 596.658 141.491 613.728 137.031C641.648 129.751 656.278 115.261 656.278 80.8007C656.278 10.2907 599.558 2.18075 562.438 1.89075C525.728 1.89075 484.378 2.89075 440.438 2.89075C418.588 2.89075 434.528 42.0307 449.538 48.3507C468.928 56.5207 526.408 51.3507 579.868 51.3507C629.198 51.3507 629.758 84.2507 629.758 95.4907C629.758 151.601 524.648 122.321 502.518 136.441C484.908 147.631 509.338 183.871 518.738 202.761Z" fill="white"/>
<path d="M105.348 486.081C91.6483 486.081 81.2883 482.334 74.2683 474.841C67.2483 467.348 63.7383 457.224 63.7383 444.471C63.7383 435.344 65.2249 427.481 68.1983 420.881C71 414.477 75.7759 409.137 81.8283 405.641C87.9483 402.061 95.7449 400.271 105.218 400.271C113.531 400.192 121.795 401.545 129.648 404.271V416.531C126.077 415.115 122.376 414.054 118.598 413.361C114.524 412.615 110.39 412.247 106.248 412.261C95.9149 412.261 88.6149 415.018 84.3483 420.531C80.0816 426.044 77.9649 434.024 77.9983 444.471C77.9983 454.204 80.3316 461.591 84.9983 466.631C89.6649 471.671 96.8583 474.191 106.578 474.191C110.599 474.182 114.612 473.847 118.578 473.191C122.44 472.593 126.228 471.587 129.878 470.191V482.601C126.233 483.768 122.496 484.631 118.708 485.181C114.284 485.813 109.818 486.114 105.348 486.081Z" fill="white"/>
<path d="M197.098 486.081C183.918 486.081 174.055 482.614 167.508 475.681C160.962 468.747 157.688 457.997 157.688 443.431C157.688 428.271 160.962 417.287 167.508 410.481C174.055 403.674 183.918 400.271 197.098 400.271C210.372 400.271 220.258 403.674 226.758 410.481C233.258 417.287 236.508 428.271 236.508 443.431C236.508 457.991 233.258 468.741 226.758 475.681C220.258 482.621 210.372 486.087 197.098 486.081ZM197.098 474.191C205.798 474.191 212.195 471.801 216.288 467.021C220.382 462.241 222.428 454.377 222.428 443.431C222.428 431.891 220.382 423.814 216.288 419.201C212.195 414.587 205.798 412.284 197.098 412.291C188.478 412.291 182.125 414.594 178.038 419.201C173.952 423.807 171.905 431.884 171.898 443.431C171.898 454.384 173.945 462.247 178.038 467.021C182.132 471.794 188.485 474.184 197.098 474.191Z" fill="white"/>
<path d="M269.599 484.791V401.531H283.679V473.931H326.329V484.791H269.599Z" fill="white"/>
<path d="M356.818 484.791V401.531H370.908V473.931H413.548V484.791H356.818Z" fill="white"/>
<path d="M444.049 484.791V401.531H502.049V412.531H458.129V437.731H497.289V448.581H458.129V473.931H502.069V484.791H444.049Z" fill="white"/>
<path d="M572.239 486.081C558.539 486.081 548.179 482.334 541.159 474.841C534.139 467.347 530.629 457.224 530.629 444.471C530.629 435.344 532.112 427.481 535.079 420.881C537.887 414.478 542.666 409.139 548.719 405.641C554.826 402.061 562.622 400.271 572.109 400.271C580.418 400.193 588.679 401.546 596.529 404.271V416.531C592.975 415.117 589.29 414.055 585.529 413.361C581.458 412.615 577.327 412.247 573.189 412.261C562.849 412.261 555.549 415.017 551.289 420.531C547.029 426.044 544.896 434.014 544.889 444.441C544.889 454.174 547.222 461.561 551.889 466.601C556.556 471.641 563.749 474.161 573.469 474.161C577.489 474.152 581.502 473.818 585.469 473.161C589.334 472.564 593.126 471.558 596.779 470.161V482.571C593.13 483.738 589.39 484.601 585.599 485.151C581.175 485.794 576.709 486.104 572.239 486.081Z" fill="white"/>
<path d="M651.318 484.791V412.531H624.698V401.531H691.898V412.531H665.408V484.771L651.318 484.791Z" fill="white"/>
<path d="M722.519 484.791V401.531H736.609V484.761L722.519 484.791Z" fill="white"/>
<path d="M799.669 484.791L767.879 401.531H782.479L807.419 469.641L832.359 401.531H846.999L815.469 484.761L799.669 484.791Z" fill="white"/>
<path d="M878.238 484.791V401.531H936.238V412.531H892.318V437.731H931.478V448.581H892.318V473.931H936.258V484.791H878.238Z" fill="white"/>
</svg>
