<svg width="1000" height="486" viewBox="0 0 1000 486" fill="none" xmlns="http://www.w3.org/2000/svg">
<path d="M0.338472 310.059C29.1085 220.059 65.5785 125.119 102.748 22.7392C108.908 5.73919 124.668 -5.03081 143.658 7.11918C157.138 15.7492 172.818 48.5992 186.658 70.1192C207.658 102.649 212.078 114.359 217.088 108.599C229.478 94.3492 260.318 28.2392 275.448 8.15919C284.208 -3.45081 306.858 -3.18081 315.128 12.2692C331.128 42.2692 360.128 113.209 377.498 151.629C394.048 188.279 417.058 239.099 439.648 294.169C441.738 299.249 441.188 315.169 427.768 316.489C415.768 317.659 410.018 318.339 398.028 317.489C387.898 316.809 383.478 314.719 378.228 302.309C345.998 226.089 316.768 159.919 282.648 79.2892C272.098 54.3392 253.888 67.2192 247.268 78.2892C219.548 124.859 210.368 148.229 186.758 148.229C168.208 149.299 149.448 109.369 129.938 79.3192C115.238 56.6792 102.608 63.3792 97.4485 77.0892C64.9985 163.349 41.5985 230.509 14.4185 315.479C13.5485 318.219 -2.51153 318.989 0.338472 310.059Z" fill="#23382E"/>
<path d="M999.659 8.61934C970.889 98.6193 934.419 193.549 897.249 295.929C891.089 312.929 875.329 323.699 856.339 311.549C842.859 302.919 817.449 245.549 805.929 222.719C781.289 173.889 749.399 103.089 747.189 98.0793C731.629 62.8093 719.809 42.6993 720.079 21.2093C720.269 5.82934 745.619 -10.2107 764.029 12.2093C778.259 29.4793 804.609 90.8593 826.999 135.589C842.689 166.979 858.339 198.839 874.369 230.899C886.109 254.389 898.859 247.539 904.019 233.829C936.439 147.619 958.399 88.1693 985.579 3.18934C986.449 0.449337 1002.51 -0.300663 999.659 8.61934Z" fill="#23382E"/>
<path d="M518.738 202.219C541.888 248.729 566.738 297.729 579.468 308.659C590.778 318.349 607.418 316.719 631.098 315.799C635.838 315.619 648.188 309.939 641.958 299.519C626.278 273.269 617.878 261.419 593.278 219.099C585.418 205.579 562.398 171.099 562.398 158.809C562.398 139.479 596.658 140.949 613.728 136.489C641.648 129.209 656.278 114.719 656.278 80.2591C656.278 9.74911 599.558 1.63912 562.438 1.34912C525.728 1.34912 484.378 2.34912 440.438 2.34912C418.588 2.34912 434.528 41.4891 449.538 47.8091C468.928 55.9791 526.408 50.8091 579.868 50.8091C629.198 50.8091 629.758 83.7091 629.758 94.9491C629.758 151.059 524.648 121.779 502.518 135.899C484.908 147.089 509.338 183.329 518.738 202.219Z" fill="#23382E"/>
<path d="M105.348 485.539C91.6483 485.539 81.2883 481.793 74.2683 474.299C67.2483 466.806 63.7383 456.683 63.7383 443.929C63.7383 434.803 65.2249 426.939 68.1983 420.339C71 413.936 75.7759 408.596 81.8283 405.099C87.9483 401.519 95.7449 399.729 105.218 399.729C113.531 399.65 121.795 401.003 129.648 403.729V415.989C126.077 414.574 122.376 413.512 118.598 412.819C114.524 412.074 110.39 411.706 106.248 411.719C95.9149 411.719 88.6149 414.476 84.3483 419.989C80.0816 425.503 77.9649 433.483 77.9983 443.929C77.9983 453.663 80.3316 461.049 84.9983 466.089C89.6649 471.129 96.8583 473.649 106.578 473.649C110.599 473.64 114.612 473.306 118.578 472.649C122.44 472.051 126.228 471.046 129.878 469.649V482.059C126.233 483.226 122.496 484.089 118.708 484.639C114.284 485.271 109.818 485.572 105.348 485.539V485.539Z" fill="#23382E"/>
<path d="M197.098 485.539C183.918 485.539 174.055 482.072 167.508 475.139C160.962 468.206 157.688 457.456 157.688 442.889C157.688 427.729 160.962 416.746 167.508 409.939C174.055 403.132 183.918 399.729 197.098 399.729C210.372 399.729 220.258 403.132 226.758 409.939C233.258 416.746 236.508 427.729 236.508 442.889C236.508 457.449 233.258 468.199 226.758 475.139C220.258 482.079 210.372 485.546 197.098 485.539ZM197.098 473.649C205.798 473.649 212.195 471.259 216.288 466.479C220.382 461.699 222.428 453.836 222.428 442.889C222.428 431.349 220.382 423.272 216.288 418.659C212.195 414.046 205.798 411.742 197.098 411.749C188.478 411.749 182.125 414.052 178.038 418.659C173.952 423.266 171.905 431.342 171.898 442.889C171.898 453.842 173.945 461.706 178.038 466.479C182.132 471.252 188.485 473.642 197.098 473.649Z" fill="#23382E"/>
<path d="M269.599 484.249V400.989H283.679V473.389H326.329V484.249H269.599Z" fill="#23382E"/>
<path d="M356.818 484.249V400.989H370.908V473.389H413.548V484.249H356.818Z" fill="#23382E"/>
<path d="M444.049 484.249V400.989H502.049V411.989H458.129V437.189H497.289V448.039H458.129V473.389H502.069V484.249H444.049Z" fill="#23382E"/>
<path d="M572.239 485.539C558.539 485.539 548.179 481.792 541.159 474.299C534.139 466.806 530.629 456.682 530.629 443.929C530.629 434.802 532.112 426.939 535.079 420.339C537.887 413.937 542.666 408.598 548.719 405.099C554.826 401.519 562.622 399.729 572.109 399.729C580.418 399.651 588.679 401.004 596.529 403.729V415.989C592.975 414.575 589.29 413.514 585.529 412.819C581.458 412.074 577.327 411.706 573.189 411.719C562.849 411.719 555.549 414.476 551.289 419.989C547.029 425.502 544.896 433.472 544.889 443.899C544.889 453.632 547.222 461.019 551.889 466.059C556.556 471.099 563.749 473.619 573.469 473.619C577.489 473.61 581.502 473.276 585.469 472.619C589.334 472.022 593.126 471.017 596.779 469.619V482.029C593.13 483.196 589.39 484.059 585.599 484.609C581.175 485.252 576.709 485.563 572.239 485.539V485.539Z" fill="#23382E"/>
<path d="M651.318 484.249V411.989H624.698V400.989H691.898V411.989H665.408V484.229L651.318 484.249Z" fill="#23382E"/>
<path d="M722.519 484.249V400.989H736.609V484.219L722.519 484.249Z" fill="#23382E"/>
<path d="M799.669 484.249L767.879 400.989H782.479L807.419 469.099L832.359 400.989H846.999L815.469 484.219L799.669 484.249Z" fill="#23382E"/>
<path d="M878.238 484.249V400.989H936.238V411.989H892.318V437.189H931.478V448.039H892.318V473.389H936.258V484.249H878.238Z" fill="#23382E"/>
</svg>
