<svg width="1000" height="486" viewBox="0 0 1000 486" fill="none" xmlns="http://www.w3.org/2000/svg">
<path d="M0.338472 310.142C29.1085 220.142 65.5785 125.202 102.748 22.8224C108.908 5.82244 124.668 -4.94756 143.658 7.20244C157.138 15.8324 172.818 48.6824 186.658 70.2024C207.658 102.732 212.078 114.442 217.088 108.682C229.478 94.4324 260.318 28.3224 275.448 8.24244C284.208 -3.36756 306.858 -3.09756 315.128 12.3524C331.128 42.3524 360.128 113.292 377.498 151.712C394.048 188.362 417.058 239.182 439.648 294.252C441.738 299.332 441.188 315.252 427.768 316.572C415.768 317.742 410.018 318.422 398.028 317.572C387.898 316.892 383.478 314.802 378.228 302.392C345.998 226.172 316.768 160.002 282.648 79.3724C272.098 54.4224 253.888 67.3024 247.268 78.3724C219.548 124.942 210.368 148.312 186.758 148.312C168.208 149.382 149.448 109.452 129.938 79.4024C115.238 56.7624 102.608 63.4624 97.4485 77.1724C64.9985 163.432 41.5985 230.592 14.4185 315.562C13.5485 318.302 -2.51153 319.072 0.338472 310.142Z" fill="black"/>
<path d="M999.659 8.70259C970.889 98.7026 934.419 193.633 897.249 296.013C891.089 313.013 875.329 323.783 856.339 311.633C842.859 303.003 817.449 245.633 805.929 222.803C781.289 173.973 749.399 103.173 747.189 98.1626C731.629 62.8926 719.809 42.7826 720.079 21.2926C720.269 5.91259 745.619 -10.1274 764.029 12.2926C778.259 29.5626 804.609 90.9426 826.999 135.673C842.689 167.063 858.339 198.923 874.369 230.983C886.109 254.473 898.859 247.623 904.019 233.913C936.439 147.703 958.399 88.2526 985.579 3.27259C986.449 0.532589 1002.51 -0.217411 999.659 8.70259Z" fill="black"/>
<path d="M518.738 202.302C541.888 248.812 566.738 297.812 579.468 308.742C590.778 318.432 607.418 316.802 631.098 315.882C635.838 315.702 648.188 310.022 641.958 299.602C626.278 273.352 617.878 261.502 593.278 219.182C585.418 205.662 562.398 171.182 562.398 158.892C562.398 139.562 596.658 141.032 613.728 136.572C641.648 129.292 656.278 114.802 656.278 80.3424C656.278 9.83237 599.558 1.72237 562.438 1.43237C525.728 1.43237 484.378 2.43237 440.438 2.43237C418.588 2.43237 434.528 41.5724 449.538 47.8924C468.928 56.0624 526.408 50.8924 579.868 50.8924C629.198 50.8924 629.758 83.7924 629.758 95.0324C629.758 151.142 524.648 121.862 502.518 135.982C484.908 147.172 509.338 183.412 518.738 202.302Z" fill="black"/>
<path d="M105.348 485.622C91.6483 485.622 81.2883 481.876 74.2683 474.382C67.2483 466.889 63.7383 456.766 63.7383 444.012C63.7383 434.886 65.2249 427.022 68.1983 420.422C71 414.019 75.7759 408.679 81.8283 405.182C87.9483 401.602 95.7449 399.812 105.218 399.812C113.531 399.733 121.795 401.087 129.648 403.812V416.072C126.077 414.657 122.376 413.595 118.598 412.902C114.524 412.157 110.39 411.789 106.248 411.803C95.9149 411.803 88.6149 414.559 84.3483 420.072C80.0816 425.586 77.9649 433.566 77.9983 444.012C77.9983 453.746 80.3316 461.132 84.9983 466.172C89.6649 471.212 96.8583 473.732 106.578 473.732C110.599 473.723 114.612 473.389 118.578 472.732C122.44 472.134 126.228 471.129 129.878 469.732V482.142C126.233 483.309 122.496 484.172 118.708 484.722C114.284 485.354 109.818 485.655 105.348 485.622V485.622Z" fill="black"/>
<path d="M197.098 485.622C183.918 485.622 174.055 482.156 167.508 475.222C160.962 468.289 157.688 457.539 157.688 442.972C157.688 427.812 160.962 416.829 167.508 410.022C174.055 403.216 183.918 399.812 197.098 399.812C210.372 399.812 220.258 403.216 226.758 410.022C233.258 416.829 236.508 427.812 236.508 442.972C236.508 457.532 233.258 468.282 226.758 475.222C220.258 482.162 210.372 485.629 197.098 485.622ZM197.098 473.732C205.798 473.732 212.195 471.342 216.288 466.562C220.382 461.782 222.428 453.919 222.428 442.972C222.428 431.432 220.382 423.356 216.288 418.742C212.195 414.129 205.798 411.826 197.098 411.832C188.478 411.832 182.125 414.136 178.038 418.742C173.952 423.349 171.905 431.426 171.898 442.972C171.898 453.926 173.945 461.789 178.038 466.562C182.132 471.336 188.485 473.726 197.098 473.732Z" fill="black"/>
<path d="M269.599 484.332V401.072H283.679V473.472H326.329V484.332H269.599Z" fill="black"/>
<path d="M356.818 484.332V401.072H370.908V473.472H413.548V484.332H356.818Z" fill="black"/>
<path d="M444.049 484.332V401.072H502.049V412.072H458.129V437.272H497.289V448.122H458.129V473.472H502.069V484.332H444.049Z" fill="black"/>
<path d="M572.239 485.622C558.539 485.622 548.179 481.876 541.159 474.382C534.139 466.889 530.629 456.766 530.629 444.012C530.629 434.886 532.112 427.022 535.079 420.422C537.887 414.02 542.666 408.681 548.719 405.182C554.826 401.602 562.622 399.812 572.109 399.812C580.418 399.734 588.679 401.088 596.529 403.812V416.072C592.975 414.659 589.29 413.597 585.529 412.902C581.458 412.157 577.327 411.789 573.189 411.802C562.849 411.802 555.549 414.559 551.289 420.072C547.029 425.586 544.896 433.556 544.889 443.982C544.889 453.716 547.222 461.102 551.889 466.142C556.556 471.182 563.749 473.702 573.469 473.702C577.489 473.694 581.502 473.359 585.469 472.702C589.334 472.106 593.126 471.1 596.779 469.702V482.112C593.13 483.279 589.39 484.142 585.599 484.692C581.175 485.335 576.709 485.646 572.239 485.622V485.622Z" fill="black"/>
<path d="M651.318 484.332V412.072H624.698V401.072H691.898V412.072H665.408V484.312L651.318 484.332Z" fill="black"/>
<path d="M722.519 484.332V401.072H736.609V484.302L722.519 484.332Z" fill="black"/>
<path d="M799.669 484.332L767.879 401.072H782.479L807.419 469.182L832.359 401.072H846.999L815.469 484.302L799.669 484.332Z" fill="black"/>
<path d="M878.238 484.332V401.072H936.238V412.072H892.318V437.272H931.478V448.122H892.318V473.472H936.258V484.332H878.238Z" fill="black"/>
</svg>
