<svg width="419" height="419" viewBox="0 0 419 419" fill="none" xmlns="http://www.w3.org/2000/svg">
<g clip-path="url(#clip0_3930_9399)">
<path fill-rule="evenodd" clip-rule="evenodd" d="M325.741 -1.25067e-06L370.487 -1.42247e-06C389.945 129.867 401.355 271.063 402.999 419L392.546 419C389.26 265.149 365.19 121.922 325.741 -1.25067e-06ZM411.327 417.653C409.633 270.312 398.277 129.587 378.922 -1.45485e-06L405.425 -1.55661e-06C412.922 -1.58539e-06 419 6.07792 419 13.5754L419 405.425C419 410.807 415.868 415.458 411.327 417.653ZM316.97 -1.21699e-06L267.089 -1.02547e-06C329.058 111.707 368.538 257.859 373.722 419L384.202 419C380.893 264.818 356.611 121.544 316.97 -1.21699e-06ZM197.75 -7.59253e-07L257.531 -9.88777e-07C320.03 110.823 360.13 257.131 365.376 419L354.9 419C347.421 247.436 287.326 96.5868 197.75 -7.59253e-07ZM186.284 -7.15229e-07L103.62 -3.97844e-07C232.167 68.3041 325.2 228.523 336.009 419L346.55 419C340.36 278.411 298.491 152.196 234.281 59.0912C219.401 37.5153 203.348 17.748 186.284 -7.15229e-07ZM13.5754 -5.21222e-08L84.9073 -3.25998e-07C136.576 24.0258 183.066 63.1462 221.326 113.649C281.341 192.87 320.801 299.794 327.653 419L13.5754 419C6.07793 419 1.5854e-06 412.922 1.55661e-06 405.425L5.21222e-08 13.5754C2.33359e-08 6.07793 6.07793 -2.33359e-08 13.5754 -5.21222e-08ZM38.5848 217L38.5848 259.078L43.6943 259.078L43.6943 226.618L66.2962 259.078L71.1051 259.078L71.1051 217L65.9957 217L65.9957 249.46L43.3937 217L38.5848 217ZM106.015 254.57L104.513 254.57C103.25 254.57 102.469 253.848 102.469 252.346L102.469 239.121C102.469 231.968 97.9605 228.061 90.146 228.061C82.7522 228.061 77.8832 231.607 77.1619 237.618L82.091 237.618C82.6921 234.492 85.5775 232.449 89.9055 232.449C94.7144 232.449 97.5397 234.853 97.5397 238.82L97.5397 240.924L88.523 240.924C80.468 240.924 76.2001 244.351 76.2001 250.482C76.2001 256.073 80.7686 259.439 87.5011 259.439C92.7909 259.439 95.8566 257.094 97.7801 254.329C97.8402 257.335 99.2228 259.078 103.31 259.078L106.015 259.078L106.015 254.57ZM97.5397 245.072L97.5397 246.575C97.5397 251.684 93.9931 255.231 87.8617 255.231C83.7741 255.231 81.1893 253.187 81.1893 250.182C81.1893 246.695 83.6539 245.072 88.0421 245.072L97.5397 245.072ZM110.646 251.083L110.646 232.93L105.116 232.93L105.116 228.421L110.646 228.421L110.646 219.825L115.575 219.825L115.575 228.421L123.33 228.421L123.33 232.93L115.575 232.93L115.575 251.023C115.575 253.608 116.477 254.57 118.942 254.57L124.292 254.57L124.292 259.078L118.641 259.078C112.75 259.078 110.646 256.493 110.646 251.083ZM152.985 228.421L148.056 228.421L148.056 243.75C148.056 250.662 144.69 254.93 139.099 254.93C133.99 254.93 131.104 251.564 131.104 245.192L131.104 228.421L126.175 228.421L126.175 245.493C126.175 255.652 131.525 259.439 138.258 259.439C143.307 259.439 146.253 257.275 148.056 254.991L148.717 259.078L152.985 259.078L152.985 228.421ZM172.689 228.421L174.071 228.421L174.071 233.23L171.607 233.23C165.175 233.23 163.431 238.58 163.431 243.449L163.431 259.078L158.502 259.078L158.502 228.421L162.77 228.421L163.431 233.05C164.874 230.705 167.218 228.421 172.689 228.421ZM189.08 228.061C180.424 228.061 174.533 234.312 174.533 243.75C174.533 253.127 180.544 259.439 189.741 259.439C196.835 259.439 201.884 254.93 203.086 248.799L198.097 248.799C197.075 252.766 193.709 255.051 189.381 255.051C183.67 255.051 179.883 251.083 179.703 245.132L179.703 244.711L203.507 244.711L203.507 244.711C203.567 243.99 203.627 243.269 203.627 242.608C203.387 233.531 197.496 228.061 189.08 228.061ZM198.518 240.624L180.003 240.624C180.484 235.635 184.632 232.389 189.14 232.389C194.25 232.389 198.037 235.334 198.518 240.624ZM36 276.815L68.5204 276.815L68.5204 281.624L54.875 281.624L54.875 318.893L49.6453 318.893L49.6453 281.624L36 281.624L36 276.815ZM80.2407 287.875C71.5846 287.875 65.6937 294.127 65.6937 303.565C65.6937 312.942 71.7049 319.254 80.9019 319.254C87.9951 319.254 93.0445 314.745 94.2467 308.614L89.2574 308.614C88.2355 312.581 84.8693 314.866 80.5413 314.866C74.8307 314.866 71.0436 310.898 70.8633 304.947L70.8633 304.526L94.6675 304.526L94.6675 304.526C94.7276 303.805 94.7877 303.084 94.7877 302.422C94.5472 293.346 88.6563 287.875 80.2407 287.875ZM89.6782 300.439L71.1639 300.439C71.6448 295.45 75.7925 292.204 80.3008 292.204C85.4103 292.204 89.1973 295.149 89.6782 300.439ZM126.561 308.313C125.299 315.046 120.369 319.254 113.036 319.254C104.079 319.254 98.1281 312.882 98.1281 303.505C98.1281 294.127 104.199 287.875 113.216 287.875C120.55 287.875 125.359 292.083 126.561 298.696L121.572 298.696C120.61 294.788 117.424 292.264 113.036 292.264C107.145 292.264 103.177 296.832 103.177 303.505C103.177 310.177 107.145 314.866 113.036 314.866C117.544 314.866 120.73 312.341 121.632 308.313L126.561 308.313ZM158.528 301.821C158.528 291.663 152.938 287.875 146.085 287.875C140.916 287.875 137.79 290.4 135.987 293.286L135.987 276.815L131.058 276.815L131.058 318.893L135.987 318.893L135.987 303.565C135.987 296.652 139.533 292.384 145.244 292.384C150.534 292.384 153.599 295.75 153.599 302.122L153.599 318.893L158.528 318.893L158.528 301.821ZM37.0219 357.669C37.0219 344.925 44.8965 336.269 57.0992 336.269C66.4165 336.269 73.1489 341.679 74.7119 350.396L69.4821 350.396C67.9192 344.505 63.2305 341.078 56.8587 341.078C48.0223 341.078 42.3718 347.931 42.3718 357.669C42.3718 367.347 48.0223 374.26 56.8587 374.26C63.3508 374.26 67.8591 370.833 69.422 364.943L74.6517 364.943C73.0888 373.659 66.4766 379.069 57.0992 379.069C44.8965 379.069 37.0219 370.533 37.0219 357.669ZM78.2561 363.38C78.2561 372.697 84.5077 379.069 93.4643 379.069C102.421 379.069 108.673 372.697 108.673 363.38C108.673 354.062 102.421 347.69 93.4643 347.69C84.5077 347.69 78.2561 354.062 78.2561 363.38ZM103.623 363.38C103.623 369.932 99.5356 374.681 93.4643 374.681C87.393 374.681 83.3055 369.932 83.3055 363.38C83.3055 356.827 87.393 352.079 93.4643 352.079C99.5356 352.079 103.623 356.827 103.623 363.38ZM113.123 336.63L118.052 336.63L118.052 378.708L113.123 378.708L113.123 336.63ZM128.531 336.63L123.602 336.63L123.602 378.708L128.531 378.708L128.531 336.63ZM133 363.38C133 353.942 138.891 347.69 147.547 347.69C155.962 347.69 161.853 353.161 162.094 362.237C162.094 362.898 162.034 363.62 161.974 364.341L161.974 364.341L138.169 364.341L138.169 364.762C138.35 370.713 142.137 374.681 147.847 374.681C152.175 374.681 155.542 372.396 156.564 368.429L161.553 368.429C160.351 374.56 155.301 379.069 148.208 379.069C139.011 379.069 133 372.757 133 363.38ZM138.47 360.254L156.984 360.254C156.503 354.964 152.716 352.018 147.607 352.018C143.099 352.018 138.951 355.265 138.47 360.254ZM180.342 379.069C187.676 379.069 192.605 374.861 193.867 368.128L188.938 368.128C188.036 372.156 184.85 374.681 180.342 374.681C174.451 374.681 170.484 369.992 170.484 363.319C170.484 356.647 174.451 352.079 180.342 352.079C184.73 352.079 187.916 354.603 188.878 358.511L193.867 358.511C192.665 351.898 187.856 347.69 180.522 347.69C171.506 347.69 165.434 353.942 165.434 363.319C165.434 372.697 171.385 379.069 180.342 379.069ZM200.407 370.713L200.407 352.56L194.877 352.56L194.877 348.051L200.407 348.051L200.407 339.455L205.337 339.455L205.337 348.051L213.091 348.051L213.091 352.56L205.337 352.56L205.337 370.653C205.337 373.238 206.238 374.2 208.703 374.2L214.053 374.2L214.053 378.708L208.402 378.708C202.511 378.708 200.407 376.123 200.407 370.713ZM222.008 339.395C222.008 337.532 220.625 336.209 218.822 336.209C217.018 336.209 215.636 337.532 215.636 339.395C215.636 341.259 217.018 342.581 218.822 342.581C220.625 342.581 222.008 341.259 222.008 339.395ZM223.771 348.051L229.061 348.051L238.318 373.118L247.515 348.051L252.685 348.051L241.203 378.708L235.252 378.708L223.771 348.051ZM267.453 347.69C258.797 347.69 252.906 353.942 252.906 363.38C252.906 372.757 258.917 379.069 268.114 379.069C275.207 379.069 280.257 374.56 281.459 368.429L276.47 368.429C275.448 372.396 272.082 374.681 267.754 374.681C262.043 374.681 258.256 370.713 258.076 364.762L258.076 364.341L281.88 364.341C281.94 363.62 282 362.899 282 362.237C281.76 353.161 275.869 347.69 267.453 347.69ZM221.286 348.051L216.357 348.051L216.357 378.708L221.286 378.708L221.286 348.051ZM276.891 360.254L258.376 360.254C258.857 355.265 263.005 352.018 267.513 352.018C272.623 352.018 276.41 354.964 276.891 360.254Z" fill="#323232"/>
</g>
<defs>
<clipPath id="clip0_3930_9399">
<rect width="419" height="419" fill="white"/>
</clipPath>
</defs>
</svg>
