<svg width="1009" height="419" viewBox="0 0 1009 419" fill="none" xmlns="http://www.w3.org/2000/svg">
<path fill-rule="evenodd" clip-rule="evenodd" d="M370.59 -1.42246e-06L325.845 -1.25067e-06C365.293 121.922 389.363 265.149 392.649 419L403.103 419C401.458 271.063 390.049 129.867 370.59 -1.42246e-06ZM379.025 -1.45485e-06C398.38 129.587 409.737 270.312 411.43 417.653C415.971 415.458 419.104 410.807 419.104 405.425L419.104 13.5754C419.104 6.07792 413.026 -1.58539e-06 405.528 -1.55661e-06L379.025 -1.45485e-06ZM267.192 -1.02547e-06L317.073 -1.21699e-06C356.715 121.544 380.996 264.818 384.305 419L373.826 419C368.642 257.859 329.162 111.707 267.192 -1.02547e-06ZM257.634 -9.88775e-07L197.854 -7.59251e-07C287.43 96.5868 347.525 247.436 355.004 419L365.479 419C360.234 257.131 320.133 110.823 257.634 -9.88775e-07ZM103.723 -3.97842e-07L186.388 -7.15226e-07C203.451 17.748 219.505 37.5153 234.385 59.0912C298.595 152.196 340.463 278.411 346.654 419L336.112 419C325.303 228.523 232.271 68.3041 103.723 -3.97842e-07ZM85.0108 -3.25996e-07L13.6789 -5.21186e-08C6.18144 -2.33323e-08 0.103516 6.07793 0.103516 13.5754L0.103517 405.425C0.103517 412.922 6.18145 419 13.6789 419L327.757 419C320.905 299.794 281.445 192.87 221.429 113.649C183.169 63.1462 136.679 24.0258 85.0108 -3.25996e-07Z" fill="white"/>
<path d="M500.215 168.583L500.215 80.7686L510.251 80.7686L557.419 148.511L557.419 80.7686L568.083 80.7686L568.083 168.583L558.047 168.583L510.878 100.84L510.878 168.583L500.215 168.583Z" fill="#060606"/>
<path d="M637.802 159.174L640.938 159.174L640.938 168.583L635.293 168.583C626.762 168.583 623.877 164.945 623.752 158.672C619.737 164.443 613.339 169.336 602.3 169.336C588.25 169.336 578.715 162.31 578.715 150.644C578.715 137.848 587.622 130.697 604.432 130.697L623.25 130.697L623.25 126.307C623.25 118.027 617.354 113.009 607.318 113.009C598.285 113.009 592.264 117.274 591.009 123.798L580.723 123.798C582.228 111.253 592.389 103.851 607.82 103.851C624.128 103.851 633.537 112.005 633.537 126.934L633.537 154.533C633.537 157.669 635.167 159.174 637.802 159.174ZM623.25 142.49L623.25 139.353L603.429 139.353C594.271 139.353 589.128 142.74 589.128 150.016C589.128 156.289 594.522 160.554 603.053 160.554C615.848 160.554 623.25 153.153 623.25 142.49Z" fill="#060606"/>
<path d="M650.603 151.898L650.603 114.013L639.061 114.013L639.061 104.604L650.603 104.604L650.603 86.6647L660.889 86.6647L660.889 104.604L677.072 104.604L677.072 114.013L660.889 114.013L660.889 151.773C660.889 157.167 662.771 159.174 667.915 159.174L679.08 159.174L679.08 168.583L667.287 168.583C654.993 168.583 650.603 163.189 650.603 151.898Z" fill="#060606"/>
<path d="M728.674 104.604L738.961 104.604L738.961 168.583L730.054 168.583L728.674 160.052C724.911 164.819 718.764 169.336 708.226 169.336C694.176 169.336 683.011 161.432 683.011 140.231L683.011 104.604L693.297 104.604L693.297 139.604C693.297 152.902 699.319 159.927 709.982 159.927C721.649 159.927 728.674 151.02 728.674 136.593L728.674 104.604Z" fill="#060606"/>
<path d="M780.081 104.604L782.966 104.604L782.966 114.64L777.823 114.64C764.4 114.64 760.762 125.805 760.762 135.966L760.762 168.583L750.475 168.583L750.475 104.604L759.382 104.604L760.762 114.263C763.772 109.371 768.665 104.604 780.081 104.604Z" fill="#060606"/>
<path d="M783.931 136.593C783.931 116.898 796.225 103.851 814.289 103.851C831.852 103.851 844.146 115.267 844.648 134.21C844.648 135.59 844.522 137.095 844.397 138.601L794.719 138.601L794.719 139.479C795.096 151.898 802.999 160.178 814.916 160.178C823.949 160.178 830.974 155.411 833.107 147.131L843.519 147.131C841.01 159.927 830.472 169.336 815.669 169.336C796.475 169.336 783.931 156.163 783.931 136.593ZM795.346 130.07L833.985 130.07C832.981 119.031 825.078 112.884 814.415 112.884C805.006 112.884 796.35 119.658 795.346 130.07Z" fill="#060606"/>
<path d="M494.82 205.599L562.688 205.599L562.688 215.635L534.211 215.635L534.211 293.413L523.297 293.413L523.297 215.635L494.82 215.635L494.82 205.599Z" fill="#060606"/>
<path d="M556.789 261.424C556.789 241.728 569.083 228.681 587.148 228.681C604.711 228.681 617.005 240.097 617.507 259.04C617.507 260.42 617.381 261.925 617.256 263.431L567.578 263.431L567.578 264.309C567.954 276.728 575.858 285.008 587.775 285.008C596.808 285.008 603.833 280.241 605.965 271.961L616.378 271.961C613.869 284.757 603.331 294.166 588.528 294.166C569.334 294.166 556.789 280.994 556.789 261.424ZM568.205 254.9L606.843 254.9C605.84 243.861 597.937 237.714 587.273 237.714C577.865 237.714 569.209 244.488 568.205 254.9Z" fill="#060606"/>
<path d="M683.815 271.334C681.181 285.384 670.894 294.166 655.589 294.166C636.897 294.166 624.478 280.868 624.478 261.298C624.478 241.728 637.148 228.681 655.966 228.681C671.27 228.681 681.306 237.463 683.815 251.262L673.403 251.262C671.396 243.108 664.747 237.839 655.589 237.839C643.295 237.839 635.016 247.373 635.016 261.298C635.016 275.223 643.295 285.008 655.589 285.008C664.998 285.008 671.647 279.739 673.528 271.334L683.815 271.334Z" fill="#060606"/>
<path d="M724.562 228.681C738.863 228.681 750.53 236.585 750.53 257.786L750.53 293.413L740.243 293.413L740.243 258.413C740.243 245.115 733.845 238.09 722.805 238.09C710.888 238.09 703.486 246.997 703.486 261.424L703.486 293.413L693.199 293.413L693.199 205.599L703.486 205.599L703.486 239.972C707.25 233.95 713.773 228.681 724.562 228.681Z" fill="#060606"/>
<path d="M496.953 374.336C496.953 347.741 513.387 329.676 538.853 329.676C558.298 329.676 572.348 340.967 575.61 359.157L564.695 359.157C561.434 346.863 551.649 339.712 538.351 339.712C519.91 339.712 508.118 354.013 508.118 374.336C508.118 394.533 519.91 408.96 538.351 408.96C551.9 408.96 561.308 401.809 564.57 389.515L575.484 389.515C572.222 407.705 558.423 418.996 538.853 418.996C513.387 418.996 496.953 401.182 496.953 374.336Z" fill="#060606"/>
<path d="M614.745 418.996C596.053 418.996 583.006 405.698 583.006 386.254C583.006 366.809 596.053 353.511 614.745 353.511C633.437 353.511 646.483 366.809 646.483 386.254C646.483 405.698 633.437 418.996 614.745 418.996ZM614.745 409.838C627.415 409.838 635.946 399.928 635.946 386.254C635.946 372.58 627.415 362.669 614.745 362.669C602.074 362.669 593.544 372.58 593.544 386.254C593.544 399.928 602.074 409.838 614.745 409.838Z" fill="#060606"/>
<path d="M655.771 330.429L666.057 330.429L666.057 418.243L655.771 418.243L655.771 330.429Z" fill="#060606"/>
<path d="M677.641 330.429L687.928 330.429L687.928 418.243L677.641 418.243L677.641 330.429Z" fill="#060606"/>
<path d="M697.253 386.254C697.253 366.558 709.547 353.511 727.612 353.511C745.175 353.511 757.469 364.927 757.97 383.87C757.97 385.25 757.845 386.755 757.72 388.261L708.042 388.261L708.042 389.139C708.418 401.558 716.321 409.838 728.239 409.838C737.271 409.838 744.296 405.071 746.429 396.791L756.841 396.791C754.332 409.587 743.795 418.996 728.992 418.996C709.798 418.996 697.253 405.824 697.253 386.254ZM708.669 379.73L747.307 379.73C746.304 368.691 738.4 362.544 727.737 362.544C718.329 362.544 709.673 369.318 708.669 379.73Z" fill="#060606"/>
<path d="M824.279 396.164C821.645 410.214 811.358 418.996 796.053 418.996C777.361 418.996 764.942 405.698 764.942 386.128C764.942 366.558 777.612 353.511 796.429 353.511C811.734 353.511 821.77 362.293 824.279 376.092L813.867 376.092C811.86 367.938 805.211 362.669 796.053 362.669C783.759 362.669 775.479 372.203 775.479 386.128C775.479 400.053 783.759 409.838 796.053 409.838C805.462 409.838 812.111 404.569 813.992 396.164L824.279 396.164Z" fill="#060606"/>
<path d="M837.929 401.558L837.929 363.673L826.387 363.673L826.387 354.264L837.929 354.264L837.929 336.325L848.215 336.325L848.215 354.264L864.398 354.264L864.398 363.673L848.215 363.673L848.215 401.433C848.215 406.827 850.097 408.835 855.241 408.835L866.405 408.835L866.405 418.243L854.613 418.243C842.319 418.243 837.929 412.849 837.929 401.558Z" fill="#060606"/>
<path d="M876.358 329.551C880.122 329.551 883.007 332.311 883.007 336.199C883.007 340.088 880.122 342.848 876.358 342.848C872.595 342.848 869.709 340.088 869.709 336.199C869.709 332.311 872.595 329.551 876.358 329.551ZM871.215 354.264L881.502 354.264L881.502 418.243L871.215 418.243L871.215 354.264Z" fill="#060606"/>
<path d="M886.687 354.264L897.727 354.264L917.046 406.576L936.239 354.264L947.028 354.264L923.067 418.243L910.648 418.243L886.687 354.264Z" fill="#060606"/>
<path d="M947.49 386.254C947.49 366.558 959.784 353.511 977.848 353.511C995.411 353.511 1007.71 364.927 1008.21 383.87C1008.21 385.25 1008.08 386.755 1007.96 388.261L958.278 388.261L958.278 389.139C958.655 401.558 966.558 409.838 978.476 409.838C987.508 409.838 994.533 405.071 996.666 396.791L1007.08 396.791C1004.57 409.587 994.031 418.996 979.228 418.996C960.035 418.996 947.49 405.824 947.49 386.254ZM958.906 379.73L997.544 379.73C996.54 368.691 988.637 362.544 977.974 362.544C968.565 362.544 959.909 369.318 958.906 379.73Z" fill="#060606"/>
</svg>
