<svg width="419" height="419" viewBox="0 0 419 419" fill="none" xmlns="http://www.w3.org/2000/svg">
<g clip-path="url(#clip0_3930_9437)">
<path fill-rule="evenodd" clip-rule="evenodd" d="M370.487 -1.42246e-06L325.741 -1.25067e-06C365.19 121.922 389.26 265.149 392.546 419L402.999 419C401.355 271.063 389.945 129.867 370.487 -1.42246e-06ZM378.922 -1.45485e-06C398.277 129.587 409.633 270.312 411.327 417.653C415.868 415.458 419 410.807 419 405.425L419 13.5754C419 6.07792 412.922 -1.58539e-06 405.425 -1.55661e-06L378.922 -1.45485e-06ZM267.089 -1.02547e-06L316.97 -1.21699e-06C356.611 121.544 380.893 264.818 384.202 419L373.722 419C368.538 257.859 329.058 111.707 267.089 -1.02547e-06ZM257.531 -9.88776e-07L197.75 -7.59252e-07C287.326 96.5868 347.421 247.436 354.9 419L365.376 419C360.13 257.131 320.03 110.823 257.531 -9.88776e-07ZM103.62 -3.97842e-07L186.284 -7.15227e-07C203.348 17.748 219.401 37.5153 234.281 59.0912C298.491 152.196 340.36 278.411 346.55 419L336.009 419C325.2 228.523 232.167 68.3041 103.62 -3.97842e-07ZM84.9073 -3.25996e-07L13.5754 -5.21204e-08C6.07793 -2.33341e-08 2.33359e-08 6.07793 5.21222e-08 13.5754L1.55661e-06 405.425C1.5854e-06 412.922 6.07793 419 13.5754 419L327.653 419C320.801 299.794 281.341 192.87 221.326 113.649C183.066 63.1462 136.576 24.0258 84.9073 -3.25996e-07Z" fill="white"/>
</g>
<defs>
<clipPath id="clip0_3930_9437">
<rect width="419" height="419" fill="white"/>
</clipPath>
</defs>
</svg>
