<svg width="1009" height="419" viewBox="0 0 1009 419" fill="none" xmlns="http://www.w3.org/2000/svg">
<path fill-rule="evenodd" clip-rule="evenodd" d="M370.487 -1.42246e-06L325.741 -1.25067e-06C365.19 121.922 389.26 265.149 392.546 419L402.999 419C401.355 271.063 389.945 129.867 370.487 -1.42246e-06ZM378.922 -1.45485e-06C398.277 129.587 409.633 270.312 411.327 417.653C415.868 415.458 419 410.807 419 405.425L419 13.5754C419 6.07792 412.922 -1.58539e-06 405.425 -1.55661e-06L378.922 -1.45485e-06ZM267.089 -1.02547e-06L316.97 -1.21699e-06C356.611 121.544 380.893 264.818 384.202 419L373.722 419C368.538 257.859 329.058 111.707 267.089 -1.02547e-06ZM257.531 -9.88777e-07L197.75 -7.59253e-07C287.326 96.5868 347.421 247.436 354.9 419L365.376 419C360.13 257.131 320.03 110.823 257.531 -9.88777e-07ZM103.62 -3.97842e-07L186.284 -7.15227e-07C203.348 17.748 219.401 37.5153 234.281 59.0912C298.491 152.196 340.36 278.411 346.55 419L336.009 419C325.2 228.523 232.167 68.3041 103.62 -3.97842e-07ZM84.9073 -3.25996e-07L13.5754 -5.21204e-08C6.07793 -2.33341e-08 2.33359e-08 6.07793 5.21222e-08 13.5754L1.55661e-06 405.425C1.5854e-06 412.922 6.07793 419 13.5754 419L327.653 419C320.801 299.794 281.341 192.87 221.326 113.649C183.066 63.1462 136.576 24.0258 84.9073 -3.25996e-07Z" fill="#FF26A8"/>
<path d="M500.111 168.583L500.111 80.7686L510.147 80.7686L557.316 148.511L557.316 80.7686L567.979 80.7686L567.979 168.583L557.943 168.583L510.774 100.84L510.774 168.583L500.111 168.583Z" fill="#FF26A8"/>
<path d="M637.698 159.174L640.835 159.174L640.835 168.583L635.189 168.583C626.659 168.583 623.774 164.945 623.648 158.672C619.634 164.443 613.236 169.336 602.196 169.336C588.146 169.336 578.612 162.31 578.612 150.644C578.612 137.848 587.519 130.697 604.329 130.697L623.146 130.697L623.146 126.307C623.146 118.027 617.25 113.009 607.214 113.009C598.182 113.009 592.16 117.274 590.906 123.798L580.619 123.798C582.124 111.253 592.286 103.851 607.716 103.851C624.024 103.851 633.433 112.005 633.433 126.934L633.433 154.533C633.433 157.669 635.064 159.174 637.698 159.174ZM623.146 142.49L623.146 139.353L603.325 139.353C594.168 139.353 589.024 142.74 589.024 150.016C589.024 156.289 594.418 160.554 602.949 160.554C615.745 160.554 623.146 153.153 623.146 142.49Z" fill="#FF26A8"/>
<path d="M650.499 151.898L650.499 114.013L638.958 114.013L638.958 104.604L650.499 104.604L650.499 86.6647L660.786 86.6647L660.786 104.604L676.969 104.604L676.969 114.013L660.786 114.013L660.786 151.773C660.786 157.167 662.668 159.174 667.811 159.174L678.976 159.174L678.976 168.583L667.184 168.583C654.89 168.583 650.499 163.189 650.499 151.898Z" fill="#FF26A8"/>
<path d="M728.571 104.604L738.857 104.604L738.857 168.583L729.951 168.583L728.571 160.052C724.807 164.819 718.66 169.336 708.122 169.336C694.072 169.336 682.907 161.432 682.907 140.231L682.907 104.604L693.194 104.604L693.194 139.604C693.194 152.902 699.216 159.927 709.879 159.927C721.545 159.927 728.571 151.02 728.571 136.593L728.571 104.604Z" fill="#FF26A8"/>
<path d="M779.977 104.604L782.863 104.604L782.863 114.64L777.719 114.64C764.296 114.64 760.658 125.805 760.658 135.966L760.658 168.583L750.371 168.583L750.371 104.604L759.278 104.604L760.658 114.263C763.669 109.371 768.561 104.604 779.977 104.604Z" fill="#FF26A8"/>
<path d="M783.827 136.593C783.827 116.898 796.121 103.851 814.186 103.851C831.749 103.851 844.043 115.267 844.544 134.21C844.544 135.59 844.419 137.095 844.294 138.601L794.616 138.601L794.616 139.479C794.992 151.898 802.895 160.178 814.813 160.178C823.845 160.178 830.87 155.411 833.003 147.131L843.415 147.131C840.906 159.927 830.369 169.336 815.566 169.336C796.372 169.336 783.827 156.163 783.827 136.593ZM795.243 130.07L833.881 130.07C832.878 119.031 824.974 112.884 814.311 112.884C804.902 112.884 796.246 119.658 795.243 130.07Z" fill="#FF26A8"/>
<path d="M494.717 205.599L562.585 205.599L562.585 215.635L534.108 215.635L534.108 293.413L523.194 293.413L523.194 215.635L494.717 215.635L494.717 205.599Z" fill="#FF26A8"/>
<path d="M556.686 261.424C556.686 241.728 568.98 228.681 587.044 228.681C604.607 228.681 616.901 240.097 617.403 259.04C617.403 260.42 617.278 261.925 617.152 263.431L567.474 263.431L567.474 264.309C567.851 276.728 575.754 285.008 587.672 285.008C596.704 285.008 603.729 280.241 605.862 271.961L616.274 271.961C613.765 284.757 603.227 294.166 588.424 294.166C569.231 294.166 556.686 280.994 556.686 261.424ZM568.102 254.9L606.74 254.9C605.736 243.861 597.833 237.714 587.17 237.714C577.761 237.714 569.105 244.488 568.102 254.9Z" fill="#FF26A8"/>
<path d="M683.712 271.334C681.077 285.384 670.791 294.166 655.486 294.166C636.794 294.166 624.374 280.868 624.374 261.298C624.374 241.728 637.045 228.681 655.862 228.681C671.167 228.681 681.203 237.463 683.712 251.262L673.3 251.262C671.292 243.108 664.643 237.839 655.486 237.839C643.192 237.839 634.912 247.373 634.912 261.298C634.912 275.223 643.192 285.008 655.486 285.008C664.894 285.008 671.543 279.739 673.425 271.334L683.712 271.334Z" fill="#FF26A8"/>
<path d="M724.458 228.681C738.759 228.681 750.426 236.585 750.426 257.786L750.426 293.413L740.139 293.413L740.139 258.413C740.139 245.115 733.741 238.09 722.702 238.09C710.784 238.09 703.383 246.997 703.383 261.424L703.383 293.413L693.096 293.413L693.096 205.599L703.383 205.599L703.383 239.972C707.146 233.95 713.67 228.681 724.458 228.681Z" fill="#FF26A8"/>
<path d="M496.849 374.336C496.849 347.741 513.283 329.676 538.749 329.676C558.194 329.676 572.244 340.967 575.506 359.157L564.592 359.157C561.33 346.863 551.545 339.712 538.248 339.712C519.807 339.712 508.014 354.013 508.014 374.336C508.014 394.533 519.807 408.96 538.248 408.96C551.796 408.96 561.205 401.809 564.467 389.515L575.381 389.515C572.119 407.705 558.32 418.996 538.749 418.996C513.283 418.996 496.849 401.182 496.849 374.336Z" fill="#FF26A8"/>
<path d="M614.641 418.996C595.949 418.996 582.903 405.698 582.903 386.254C582.903 366.809 595.949 353.511 614.641 353.511C633.333 353.511 646.38 366.809 646.38 386.254C646.38 405.698 633.333 418.996 614.641 418.996ZM614.641 409.838C627.312 409.838 635.842 399.928 635.842 386.254C635.842 372.58 627.312 362.669 614.641 362.669C601.971 362.669 593.44 372.58 593.44 386.254C593.44 399.928 601.971 409.838 614.641 409.838Z" fill="#FF26A8"/>
<path d="M655.667 330.429L665.954 330.429L665.954 418.243L655.667 418.243L655.667 330.429Z" fill="#FF26A8"/>
<path d="M677.537 330.429L687.824 330.429L687.824 418.243L677.537 418.243L677.537 330.429Z" fill="#FF26A8"/>
<path d="M697.15 386.254C697.15 366.558 709.444 353.511 727.508 353.511C745.071 353.511 757.365 364.927 757.867 383.87C757.867 385.25 757.741 386.755 757.616 388.261L707.938 388.261L707.938 389.139C708.315 401.558 716.218 409.838 728.135 409.838C737.168 409.838 744.193 405.071 746.326 396.791L756.738 396.791C754.229 409.587 743.691 418.996 728.888 418.996C709.694 418.996 697.15 405.824 697.15 386.254ZM708.565 379.73L747.204 379.73C746.2 368.691 738.297 362.544 727.634 362.544C718.225 362.544 709.569 369.318 708.565 379.73Z" fill="#FF26A8"/>
<path d="M824.176 396.164C821.541 410.214 811.254 418.996 795.95 418.996C777.258 418.996 764.838 405.698 764.838 386.128C764.838 366.558 777.509 353.511 796.326 353.511C811.631 353.511 821.667 362.293 824.176 376.092L813.763 376.092C811.756 367.938 805.107 362.669 795.95 362.669C783.656 362.669 775.376 372.203 775.376 386.128C775.376 400.053 783.656 409.838 795.95 409.838C805.358 409.838 812.007 404.569 813.889 396.164L824.176 396.164Z" fill="#FF26A8"/>
<path d="M837.825 401.558L837.825 363.673L826.284 363.673L826.284 354.264L837.825 354.264L837.825 336.325L848.112 336.325L848.112 354.264L864.295 354.264L864.295 363.673L848.112 363.673L848.112 401.433C848.112 406.827 849.994 408.835 855.137 408.835L866.302 408.835L866.302 418.243L854.51 418.243C842.216 418.243 837.825 412.849 837.825 401.558Z" fill="#FF26A8"/>
<path d="M876.255 329.551C880.018 329.551 882.903 332.311 882.903 336.199C882.903 340.088 880.018 342.848 876.255 342.848C872.491 342.848 869.606 340.088 869.606 336.199C869.606 332.311 872.491 329.551 876.255 329.551ZM871.111 354.264L881.398 354.264L881.398 418.243L871.111 418.243L871.111 354.264Z" fill="#FF26A8"/>
<path d="M886.584 354.264L897.623 354.264L916.942 406.576L936.136 354.264L946.925 354.264L922.964 418.243L910.544 418.243L886.584 354.264Z" fill="#FF26A8"/>
<path d="M947.386 386.254C947.386 366.558 959.68 353.511 977.745 353.511C995.308 353.511 1007.6 364.927 1008.1 383.87C1008.1 385.25 1007.98 386.755 1007.85 388.261L958.175 388.261L958.175 389.139C958.551 401.558 966.454 409.838 978.372 409.838C987.404 409.838 994.43 405.071 996.562 396.791L1006.97 396.791C1004.47 409.587 993.928 418.996 979.125 418.996C959.931 418.996 947.386 405.824 947.386 386.254ZM958.802 379.73L997.44 379.73C996.437 368.691 988.533 362.544 977.87 362.544C968.462 362.544 959.806 369.318 958.802 379.73Z" fill="#FF26A8"/>
</svg>
